<?xml version="1.0" standalone="no"?>
<!DOCTYPE svg PUBLIC "-//W3C//DTD SVG 20010904//EN"
 "http://www.w3.org/TR/2001/REC-SVG-20010904/DTD/svg10.dtd">
<svg version="1.0" xmlns="http://www.w3.org/2000/svg"
 width="1024.000000pt" height="1024.000000pt" viewBox="0 0 1024.000000 1024.000000"
 preserveAspectRatio="xMidYMid meet">
<metadata>
Created by potrace 1.14, written by Peter Selinger 2001-2017
</metadata>
<g transform="translate(0.000000,1024.000000) scale(0.100000,-0.100000)"
fill="#000000" stroke="none">
<path d="M3230 8608 c0 -13 -34 -189 -76 -393 -41 -203 -104 -509 -139 -680
-34 -170 -79 -389 -99 -485 -20 -96 -55 -260 -76 -365 -21 -104 -60 -289 -85
-410 -55 -258 -79 -375 -104 -505 -30 -153 -87 -433 -121 -590 -17 -80 -57
-278 -90 -440 -87 -428 -167 -818 -180 -875 -16 -74 -110 -548 -126 -640 -8
-44 -17 -86 -19 -94 -6 -15 -52 -239 -115 -561 -23 -113 -47 -232 -55 -265 -8
-33 -24 -112 -35 -175 -12 -63 -26 -130 -32 -149 -10 -33 -38 -213 -34 -218 2
-2 264 -5 583 -9 l581 -5 15 68 c9 37 20 102 26 143 18 131 111 715 175 1100
15 85 30 175 34 200 l7 45 516 3 517 2 6 -47 c10 -75 45 -306 67 -438 37 -230
148 -1024 149 -1062 0 -10 122 -13 578 -13 318 0 581 2 584 5 5 5 -2 54 -42
285 -145 842 -218 1263 -255 1470 -15 80 -33 183 -40 230 -13 84 -27 166 -65
390 -11 63 -29 171 -40 240 -11 69 -27 159 -35 200 -8 41 -26 145 -40 230 -14
85 -30 178 -35 205 -6 28 -24 136 -40 240 -16 105 -37 228 -45 275 -8 47 -24
144 -35 215 -11 72 -26 168 -34 215 -8 47 -20 117 -26 155 -6 39 -22 133 -36
210 -23 132 -198 1197 -264 1610 -17 105 -40 244 -50 310 -11 66 -27 176 -36
245 -9 69 -18 131 -20 138 -3 9 -143 12 -659 12 l-655 0 0 -22z m690 -2070 c0
-28 30 -338 40 -413 6 -44 27 -222 46 -395 65 -586 107 -944 124 -1065 5 -38
12 -103 16 -142 l7 -73 -352 0 -352 0 6 58 c11 88 80 570 120 832 20 129 43
284 51 344 7 61 16 117 19 126 4 13 19 116 75 535 5 39 14 97 20 130 5 33 10
63 10 68 0 4 38 7 85 7 61 0 85 -3 85 -12z"/>
<path d="M6080 5190 l0 -3440 1121 0 1122 0 -7 113 c-27 480 -31 3080 -9 5905
l6 862 -1116 0 -1117 0 0 -3440z m2150 2897 c0 -863 -12 -1757 -24 -1748 -8 7
-11 -5 -12 -37 -1 -26 -5 -112 -9 -192 -5 -80 -8 -257 -7 -395 1 -137 4 -808
7 -1490 3 -682 8 -1500 11 -1818 l7 -577 -452 0 -451 0 0 3360 0 3360 465 0
465 0 0 -463z"/>
</g>
</svg>
